Coordinates
version=1
nRows=11
nColumns=36
inDegrees=yes

Units are S.I. units (second, meters, Newtons, ...)
If the header above contains a line with 'inDegrees', this indicates whether rotational values are in degrees (yes) or radians (no).

endheader
time	pelvis_tilt	pelvis_list	pelvis_rotation	pelvis_tx	pelvis_ty	pelvis_tz	hip_flexion_r	hip_adduction_r	hip_rotation_r	knee_angle_r	knee_angle_r_beta	ankle_angle_r	subtalar_angle_r	mtp_angle_r	hip_flexion_l	hip_adduction_l	hip_rotation_l	knee_angle_l	knee_angle_l_beta	ankle_angle_l	subtalar_angle_l	mtp_angle_l	lumbar_extension	lumbar_bending	lumbar_rotation	arm_flex_r	arm_add_r	arm_rot_r	elbow_flex_r	pro_sup_r	arm_flex_l	arm_add_l	arm_rot_l	elbow_flex_l	pro_sup_l
      0.00000000	      5.34195933	      8.73301796	      0.04718343	      0.95102690	      0.93769369	     -0.17676503	     -2.32076637	     -2.84291265	      2.93576295	     13.23384238	      0.23097412	     11.11924552	      9.83036778	     -6.44229008	     44.71687815	     -0.23932049	     -3.74624042	     25.36984490	      0.44278732	      8.60243218	    -12.88674323	     -6.44229008	    -22.55886854	     -1.56031165	     -8.27785076	     49.75499078	    -10.89179130	     58.01226706	    130.75862325	     79.64397543	     41.83337094	     -1.37687346	     61.05513265	    119.75330232	     98.80999585
      0.01666670	      4.19662560	      7.88692149	     -0.37261764	      0.94994031	      0.93616361	     -0.17587193	     -2.73238225	     -0.78438274	      9.58784248	     10.01479518	      0.17479115	      5.76035646	     -2.00087904	     -6.67265210	     45.90924711	     -1.58869156	      0.13350405	     20.22899567	      0.35306258	     12.66827436	    -10.21480504	     -6.67265210	    -22.95747552	      0.30840655	     -5.47958939	     52.62063066	    -10.89480063	     66.23437579	    134.54796703	     99.06968302	     42.74437072	     -1.79225153	     61.75160183	    124.01461059	    109.00929391
      0.03333330	      2.05136909	      8.64388209	     -1.57117258	      0.95496176	      0.93866754	     -0.17307001	      0.26891270	     -1.16687305	      5.79838102	     11.15049568	      0.19461286	      8.06941034	     -0.53558454	     -6.85807654	     46.66479050	     -3.00302645	     -1.92386427	     17.55394998	      0.30637422	     13.62088388	     -7.51469578	     -6.85807654	    -21.48277928	     -1.04533277	     -3.70027262	     50.36132454	     -8.07171339	     64.70269256	    135.54462832	    105.19963310	     41.58337406	     -1.73578562	     63.22984584	    125.38185968	    112.35529295
      0.05000000	      0.00809027	     10.00161469	     -2.07067050	      0.95885186	      0.93811318	     -0.17108357	      2.70796905	     -2.59370108	      3.07751003	     12.49223145	      0.21803057	     12.27301058	      2.24828465	     -6.88138898	     47.97949404	     -2.68549419	     -4.67339261	     19.11066235	      0.33354398	     16.01329907	     -4.09518680	     -6.88138898	    -18.74763955	     -2.89375939	     -2.67034234	     47.67520656	     -7.12415013	     65.55040892	    134.97319380	    105.79159792	     39.85017332	     -1.35474587	     63.99735698	    125.24161122	    112.53289568
      0.06666670	     -1.18025658	     11.01668858	     -1.55721311	      0.96003789	      0.93767832	     -0.17125190	      3.73762053	     -3.73266125	      1.40841551	     13.19368851	      0.23027330	     14.43457124	      3.27333287	     -6.89705998	     48.72843997	     -1.73091915	     -6.90429141	     20.22077099	      0.35291903	     17.61741809	     -1.01805383	     -6.89705998	    -17.07685572	     -4.20928751	     -2.62158889	     45.81509135	     -6.87535138	     66.10129900	    134.67072125	    106.25900565	     39.13619671	     -0.91417379	     64.41429110	    125.14349760	    112.51801683
      0.08333330	     -1.96327681	     11.08001089	     -0.65878764	      0.95614918	      0.93754393	     -0.16881623	      4.58248080	     -3.82137253	      0.47238208	     13.93633966	      0.24323501	     15.62390560	      3.64152895	     -6.91184190	     49.86110022	     -1.36614222	     -7.67247624	     21.43247656	      0.37406728	     18.24371627	      1.15924488	     -6.91184190	    -16.33651759	     -4.18507654	     -2.78533257	     44.99962418	     -6.71683293	     66.58354053	    134.14787566	    106.69284747	     38.81578696	     -0.69117567	     64.65604638	    125.34694841	    112.33812573
      0.10000000	     -2.42312364	     11.02520697	      0.19333892	      0.95603669	      0.93707377	     -0.16977415	      5.27776578	     -3.76542409	      0.08351932	     14.68735815	      0.25634276	     16.38903029	      3.48091453	     -7.01043569	     50.75992688	     -1.03447677	     -7.74646016	     22.10835547	      0.38586360	     17.89559683	      1.93186138	     -7.01043569	    -15.82342533	     -3.93882258	     -3.49435171	     44.10750155	     -6.18481341	     67.18595104	    133.22192626	    106.75275636	     38.39287471	     -0.85012248	     64.77913254	    125.37519521	    112.11549638
      0.11666670	     -2.54697828	     11.04694417	      0.89751487	      0.95651864	      0.93745152	     -0.17036930	      5.58799311	     -3.79829150	     -0.17657961	     15.26415113	      0.26640969	     17.08327806	      3.33460992	     -7.09902862	     51.20272166	     -0.61499323	     -7.43490457	     22.43930431	      0.39163974	     17.66890101	      2.12595346	     -7.09902862	    -15.71873797	     -3.79451168	     -4.03910444	     43.35753515	     -5.80836390	     67.46880823	    132.54717520	    106.22137226	     38.03965333	     -0.97133837	     64.38013461	    125.25137089	    111.71881618
      0.13333330	     -2.59369679	     11.01123908	      1.42998043	      0.95540700	      0.93690913	     -0.17098673	      5.83449039	     -3.79003131	     -0.41907667	     15.80777028	      0.27589764	     17.35184149	      3.27598687	     -7.18054122	     51.70862560	     -0.36314882	     -7.01583888	     22.93456348	      0.40028365	     17.60462061	      2.13466118	     -7.18054122	    -15.46175712	     -3.64692715	     -4.95247952	     42.53620635	     -5.15580620	     67.18158406	    131.71995556	    106.17562020	     37.58513698	     -1.40375878	     63.39617994	    125.21489091	    111.26893018
      0.15000000	     -2.39605369	     11.12323278	      1.92122138	      0.95527198	      0.93748464	     -0.17122396	      5.70548032	     -3.95530578	     -0.63607594	     16.13206400	      0.28155763	     17.48360630	      3.19689208	     -7.24702546	     51.67474866	      0.07245994	     -6.53905070	     22.94805611	      0.40051914	     17.55378836	      1.90511534	     -7.24702546	    -15.54110322	     -3.66513141	     -5.80151233	     42.00825526	     -4.67603129	     66.84119566	    131.18037216	    105.99315475	     37.30171884	     -1.94641466	     63.00993080	    125.57748939	    110.57617121
      0.16666670	     -2.16695131	     11.11504582	      2.14151908	      0.95399931	      0.94046376	     -0.17170641	      5.68622303	     -3.96827056	     -0.67945966	     16.53795261	      0.28864172	     17.58842149	      2.91852589	     -7.27773764	     51.43614835	      0.33920661	     -6.22396047	     22.84082926	      0.39864767	     17.51075236	      1.83632741	     -7.27773764	    -15.84293645	     -3.45407158	     -6.36492737	     41.90756656	     -4.37283233	     66.92599769	    130.60361101	    106.11321491	     36.99978098	     -2.50848404	     63.11673521	    126.07963208	    110.19612902
